<svg width="14" height="14" viewBox="0 0 14 14" fill="none" xmlns="http://www.w3.org/2000/svg">
<g id="webinar-play_17818984 8" clip-path="url(#clip0_240_4741)">
<g id="Vector">
<path d="M6.65273 5.25756C6.65273 4.51093 6.04775 3.90596 5.30113 3.90596C4.5545 3.90596 3.94952 4.51093 3.94952 5.25756C3.94952 6.00418 4.5545 6.60916 5.30113 6.60916C6.04775 6.60916 6.65273 6.00418 6.65273 5.25756Z" fill="white"/>
<path fill-rule="evenodd" clip-rule="evenodd" d="M9.89657 4.56716V3.24529C9.89657 2.92523 10.2404 2.72303 10.5199 2.8782L11.7099 3.5394C11.9975 3.69943 11.9975 4.11302 11.7099 4.27305L10.5199 4.93425C10.2404 5.08942 9.89657 4.88722 9.89657 4.56716ZM7.46369 3.90596C7.46369 2.11697 8.91855 0.662109 10.7075 0.662109C12.4965 0.662109 13.9514 2.11697 13.9514 3.90596C13.9514 5.69494 12.4965 7.1498 10.7075 7.1498C8.91855 7.1498 7.46369 5.69494 7.46369 3.90596ZM8.54497 3.90596C8.54497 5.09861 9.51488 6.06852 10.7075 6.06852C11.9002 6.06852 12.8701 5.09861 12.8701 3.90596C12.8701 2.7133 11.9002 1.74339 10.7075 1.74339C9.51488 1.74339 8.54497 2.7133 8.54497 3.90596ZM13.4107 7.1498C13.1118 7.1498 12.8701 7.39201 12.8701 7.69044V8.77172C12.8701 9.66594 12.1424 10.3936 11.2482 10.3936H3.6792C2.78498 10.3936 2.05728 9.66594 2.05728 8.77172V4.4466C2.05728 3.55238 2.78498 2.82467 3.6792 2.82467H6.38241C6.68138 2.82467 6.92305 2.58247 6.92305 2.28403C6.92305 1.9856 6.68138 1.74339 6.38241 1.74339H3.6792C2.18866 1.74339 0.975998 2.95605 0.975998 4.4466V8.77172C0.975998 10.2623 2.18866 11.4749 3.6792 11.4749H6.92305V12.5562H4.76048C4.46151 12.5562 4.21984 12.7979 4.21984 13.0969C4.21984 13.3958 4.46151 13.6375 4.76048 13.6375H10.1669C10.4659 13.6375 10.7075 13.3958 10.7075 13.0969C10.7075 12.7979 10.4659 12.5562 10.1669 12.5562H8.00433V11.4749H11.2482C12.7387 11.4749 13.9514 10.2623 13.9514 8.77172V7.69044C13.9514 7.39201 13.7097 7.1498 13.4107 7.1498Z" fill="#40E0D0"/>
<path d="M3.17262 8.58196C3.06828 8.86147 3.20939 9.17288 3.48944 9.27776C3.76679 9.38103 4.08036 9.24154 4.18524 8.96095C4.34906 8.52411 4.79725 8.23054 5.30058 8.23054C5.80392 8.23054 6.25265 8.52411 6.41593 8.96095C6.52027 9.2437 6.83925 9.38157 7.11173 9.27776C7.39178 9.17288 7.53289 8.86093 7.42855 8.58196C7.10747 7.7252 6.25244 7.15002 5.30058 7.1498C4.34873 7.15002 3.4937 7.7252 3.17262 8.58196Z" fill="white"/>
</g>
</g>
<defs>
<clipPath id="clip0_240_4741">
<rect width="12.9754" height="12.9754" fill="white" transform="translate(0.975388 0.662109)"/>
</clipPath>
</defs>
</svg>